<svg width="21" height="21" viewBox="0 0 21 21" fill="none" xmlns="http://www.w3.org/2000/svg">
<path d="M19.0478 2.00257C17.5828 0.538574 15.2258 0.538574 10.5118 0.538574C5.79776 0.538574 3.44276 0.538574 1.97676 2.00257C1.21876 2.76057 0.853758 3.75657 0.676758 5.19457C1.21045 4.60025 1.84912 4.10938 2.56076 3.74657C3.34276 3.34857 4.17976 3.18657 5.10576 3.11157C6.00076 3.03857 7.10276 3.03857 8.44876 3.03857H12.5748C13.9218 3.03857 15.0228 3.03857 15.9178 3.11157C16.8448 3.18757 17.6818 3.34857 18.4628 3.74657C19.1744 4.10936 19.8131 4.60023 20.3468 5.19457C20.1708 3.75657 19.8058 2.76057 19.0478 2.00257Z" fill="white"/>
<path fill-rule="evenodd" clip-rule="evenodd" d="M0.512695 12.5386C0.512695 9.73857 0.512695 8.33857 1.0577 7.26857C1.53706 6.32781 2.30193 5.56293 3.2427 5.08357C4.3127 4.53857 5.7127 4.53857 8.5127 4.53857H12.5127C15.3127 4.53857 16.7127 4.53857 17.7827 5.08357C18.7235 5.56293 19.4883 6.32781 19.9677 7.26857C20.5127 8.33857 20.5127 9.73857 20.5127 12.5386C20.5127 15.3386 20.5127 16.7386 19.9677 17.8086C19.4883 18.7493 18.7235 19.5142 17.7827 19.9936C16.7127 20.5386 15.3127 20.5386 12.5127 20.5386H8.5127C5.7127 20.5386 4.3127 20.5386 3.2427 19.9936C2.30193 19.5142 1.53706 18.7493 1.0577 17.8086C0.512695 16.7386 0.512695 15.3386 0.512695 12.5386ZM11.0427 16.0686C10.9021 16.209 10.7114 16.2879 10.5127 16.2879C10.3139 16.2879 10.1233 16.209 9.9827 16.0686L7.4827 13.5686C7.40901 13.4999 7.34991 13.4171 7.30891 13.3251C7.26792 13.2331 7.24588 13.1338 7.2441 13.0331C7.24233 12.9324 7.26085 12.8324 7.29857 12.739C7.33629 12.6456 7.39244 12.5608 7.46366 12.4895C7.53488 12.4183 7.61971 12.3622 7.7131 12.3245C7.80649 12.2867 7.90651 12.2682 8.00722 12.27C8.10792 12.2718 8.20723 12.2938 8.29923 12.3348C8.39123 12.3758 8.47403 12.4349 8.5427 12.5086L9.7627 13.7286V9.53857C9.7627 9.33966 9.84171 9.1489 9.98237 9.00824C10.123 8.86759 10.3138 8.78857 10.5127 8.78857C10.7116 8.78857 10.9024 8.86759 11.043 9.00824C11.1837 9.1489 11.2627 9.33966 11.2627 9.53857V13.7286L12.4827 12.5086C12.5514 12.4349 12.6342 12.3758 12.7262 12.3348C12.8182 12.2938 12.9175 12.2718 13.0182 12.27C13.1189 12.2682 13.2189 12.2867 13.3123 12.3245C13.4057 12.3622 13.4905 12.4183 13.5617 12.4895C13.633 12.5608 13.6891 12.6456 13.7268 12.739C13.7645 12.8324 13.7831 12.9324 13.7813 13.0331C13.7795 13.1338 13.7575 13.2331 13.7165 13.3251C13.6755 13.4171 13.6164 13.4999 13.5427 13.5686L11.0427 16.0686Z" fill="white"/>
</svg>
