<svg width="37" height="37" viewBox="0 0 37 37" fill="none" xmlns="http://www.w3.org/2000/svg">
<circle cx="18.4577" cy="18.1984" r="17.6483" stroke="white" stroke-width="1.00847"/>
<path d="M18.7427 9.6543C19.6743 9.65678 20.1471 9.66175 20.5554 9.67334L20.716 9.67914C20.9015 9.68576 21.0845 9.69405 21.3056 9.70398C22.1867 9.74539 22.7879 9.88451 23.3154 10.089C23.862 10.2994 24.3224 10.5842 24.7828 11.0438C25.2039 11.4578 25.5297 11.9585 25.7376 12.5112C25.9422 13.0387 26.0813 13.6399 26.1227 14.5218C26.1326 14.7421 26.1409 14.9251 26.1475 15.1114L26.1525 15.2721C26.1649 15.6795 26.1699 16.1524 26.1715 17.084L26.1724 17.7017V18.7865C26.1744 19.3905 26.168 19.9946 26.1533 20.5984L26.1483 20.7591C26.1417 20.9454 26.1334 21.1284 26.1235 21.3487C26.0821 22.2306 25.9413 22.8309 25.7376 23.3593C25.5303 23.9123 25.2044 24.4131 24.7828 24.8267C24.3687 25.2476 23.868 25.5734 23.3154 25.7814C22.7879 25.986 22.1867 26.1251 21.3056 26.1665C21.1092 26.1758 20.9126 26.184 20.716 26.1914L20.5554 26.1963C20.1471 26.2079 19.6743 26.2137 18.7427 26.2154L18.1249 26.2162H17.041C16.4367 26.2183 15.8324 26.2119 15.2283 26.1971L15.0676 26.1922C14.871 26.1847 14.6745 26.1762 14.478 26.1665C13.5969 26.1251 12.9957 25.986 12.4674 25.7814C11.9148 25.5739 11.4142 25.248 11.0008 24.8267C10.5794 24.4128 10.2533 23.9121 10.0452 23.3593C9.84067 22.8318 9.70155 22.2306 9.66015 21.3487C9.65092 21.1522 9.64264 20.9556 9.63531 20.7591L9.63117 20.5984C9.61591 19.9946 9.609 19.3906 9.61046 18.7865V17.084C9.60815 16.48 9.61423 15.8759 9.62868 15.2721L9.63448 15.1114C9.6411 14.9251 9.64938 14.7421 9.65932 14.5218C9.70073 13.6399 9.83985 13.0395 10.0444 12.5112C10.2523 11.958 10.5791 11.4571 11.0017 11.0438C11.415 10.6227 11.9152 10.2969 12.4674 10.089C12.9957 9.88451 13.5961 9.74539 14.478 9.70398C14.6983 9.69405 14.8821 9.68576 15.0676 9.67914L15.2283 9.67417C15.8321 9.65946 16.4361 9.65311 17.0401 9.65512L18.7427 9.6543ZM17.8914 13.7948C16.7933 13.7948 15.7401 14.231 14.9637 15.0075C14.1872 15.784 13.7509 16.8371 13.7509 17.9352C13.7509 19.0334 14.1872 20.0865 14.9637 20.863C15.7401 21.6395 16.7933 22.0757 17.8914 22.0757C18.9895 22.0757 20.0427 21.6395 20.8192 20.863C21.5957 20.0865 22.0319 19.0334 22.0319 17.9352C22.0319 16.8371 21.5957 15.784 20.8192 15.0075C20.0427 14.231 18.9895 13.7948 17.8914 13.7948ZM17.8914 15.451C18.2177 15.4509 18.5407 15.5151 18.8421 15.6399C19.1436 15.7647 19.4175 15.9477 19.6482 16.1783C19.8789 16.4089 20.0619 16.6828 20.1868 16.9842C20.3117 17.2856 20.3761 17.6086 20.3761 17.9348C20.3762 18.2611 20.312 18.5841 20.1872 18.8856C20.0624 19.187 19.8794 19.4609 19.6488 19.6916C19.4181 19.9223 19.1443 20.1054 18.8429 20.2303C18.5415 20.3552 18.2185 20.4195 17.8922 20.4195C17.2334 20.4195 16.6015 20.1578 16.1356 19.6919C15.6697 19.226 15.408 18.5941 15.408 17.9352C15.408 17.2764 15.6697 16.6445 16.1356 16.1786C16.6015 15.7127 17.2334 15.451 17.8922 15.451M22.2397 12.5526C21.9652 12.5526 21.7019 12.6617 21.5078 12.8558C21.3137 13.0499 21.2046 13.3132 21.2046 13.5877C21.2046 13.8623 21.3137 14.1256 21.5078 14.3197C21.7019 14.5138 21.9652 14.6229 22.2397 14.6229C22.5143 14.6229 22.7776 14.5138 22.9717 14.3197C23.1658 14.1256 23.2749 13.8623 23.2749 13.5877C23.2749 13.3132 23.1658 13.0499 22.9717 12.8558C22.7776 12.6617 22.5143 12.5526 22.2397 12.5526Z" fill="white"/>
</svg>
