<svg width="38" height="38" viewBox="0 0 38 38" fill="none" xmlns="http://www.w3.org/2000/svg">
<circle cx="19.0681" cy="19.0998" r="17.6483" stroke="white" stroke-width="1.00847"/>
<g clip-path="url(#clip0_1_14)">
<path fill-rule="evenodd" clip-rule="evenodd" d="M24.7207 10.748C25.45 10.748 26.1495 11.0378 26.6652 11.5535C27.181 12.0692 27.4707 12.7687 27.4707 13.498V24.498C27.4707 25.2274 27.181 25.9269 26.6652 26.4426C26.1495 26.9583 25.45 27.248 24.7207 27.248H13.7207C12.9914 27.248 12.2919 26.9583 11.7762 26.4426C11.2604 25.9269 10.9707 25.2274 10.9707 24.498V13.498C10.9707 12.7687 11.2604 12.0692 11.7762 11.5535C12.2919 11.0378 12.9914 10.748 13.7207 10.748H24.7207ZM15.554 17.1647C15.3109 17.1647 15.0778 17.2613 14.9059 17.4332C14.7339 17.6051 14.6374 17.8383 14.6374 18.0814V22.6647C14.6374 22.9078 14.7339 23.141 14.9059 23.3129C15.0778 23.4848 15.3109 23.5814 15.554 23.5814C15.7972 23.5814 16.0303 23.4848 16.2022 23.3129C16.3741 23.141 16.4707 22.9078 16.4707 22.6647V18.0814C16.4707 17.8383 16.3741 17.6051 16.2022 17.4332C16.0303 17.2613 15.7972 17.1647 15.554 17.1647ZM18.304 16.248C18.0609 16.248 17.8278 16.3446 17.6559 16.5165C17.4839 16.6884 17.3874 16.9216 17.3874 17.1647V22.6647C17.3874 22.9078 17.4839 23.141 17.6559 23.3129C17.8278 23.4848 18.0609 23.5814 18.304 23.5814C18.5472 23.5814 18.7803 23.4848 18.9522 23.3129C19.1241 23.141 19.2207 22.9078 19.2207 22.6647V19.3097C19.5003 18.9944 19.9724 18.624 20.4976 18.3995C20.8029 18.2693 21.2621 18.2161 21.5811 18.317C21.6869 18.3438 21.7812 18.4043 21.8497 18.4893C21.8974 18.5535 21.9707 18.6965 21.9707 18.998V22.6647C21.9707 22.9078 22.0673 23.141 22.2392 23.3129C22.4111 23.4848 22.6443 23.5814 22.8874 23.5814C23.1305 23.5814 23.3636 23.4848 23.5356 23.3129C23.7075 23.141 23.804 22.9078 23.804 22.6647V18.998C23.804 18.3839 23.6482 17.8375 23.3237 17.3994C23.0251 17.0021 22.6072 16.7107 22.1311 16.568C21.3043 16.3085 20.3885 16.4525 19.7771 16.7146C19.5814 16.7988 19.3907 16.8943 19.206 17.0006C19.1676 16.7894 19.0563 16.5984 18.8914 16.4609C18.7266 16.3233 18.5187 16.248 18.304 16.248ZM15.554 14.4147C15.3109 14.4147 15.0778 14.5113 14.9059 14.6832C14.7339 14.8551 14.6374 15.0883 14.6374 15.3314C14.6374 15.5745 14.7339 15.8077 14.9059 15.9796C15.0778 16.1515 15.3109 16.248 15.554 16.248C15.7972 16.248 16.0303 16.1515 16.2022 15.9796C16.3741 15.8077 16.4707 15.5745 16.4707 15.3314C16.4707 15.0883 16.3741 14.8551 16.2022 14.6832C16.0303 14.5113 15.7972 14.4147 15.554 14.4147Z" fill="white"/>
</g>
<defs>
<clipPath id="clip0_1_14">
<rect width="22" height="22" fill="white" transform="translate(8.2207 7.99805)"/>
</clipPath>
</defs>
</svg>
