<svg width="108" height="30" viewBox="0 0 108 30" fill="none" xmlns="http://www.w3.org/2000/svg">
<mask id="mask0_99_361" style="mask-type:luminance" maskUnits="userSpaceOnUse" x="0" y="0" width="108" height="30">
<path d="M107.244 0.218506H0.8013V29.4323H107.244V0.218506Z" fill="white"/>
</mask>
<g mask="url(#mask0_99_361)">
<path d="M17.6467 29.0546C14.7108 29.0546 12.0753 27.2549 11.007 24.5209L9.62321 20.9837C9.48128 20.6624 9.3305 20.4545 9.17083 20.3579C9.01018 20.2612 8.74997 20.2129 8.39024 20.2129H7.77427L7.40962 23.2031C7.00157 26.5434 4.16607 29.0546 0.8013 29.0546L3.62695 6.0689C4.03694 2.72877 6.87441 0.218506 10.2402 0.218506L8.25621 16.3801H8.66031C8.99442 16.3801 9.26348 16.3288 9.46944 16.2263C9.67446 16.1238 9.88044 15.9375 10.0855 15.6675L12.9801 11.7015C14.1667 10.0763 16.0531 9.11038 18.0647 9.09954L21.4501 9.07984L15.8639 16.1878C15.6066 16.5219 15.3248 16.8176 15.0163 17.0738C14.7078 17.3311 14.3865 17.5558 14.0534 17.748C14.3234 17.9668 14.557 18.22 14.7561 18.5089C14.9552 18.7977 15.1316 19.1289 15.2854 19.5014L19.2917 29.0555L17.6467 29.0546Z" fill="#1A1A1A"/>
<path d="M21.4128 29.0546L24.2069 6.0699C24.6129 2.72976 27.4485 0.218506 30.813 0.218506L28.019 23.2031C27.612 26.5434 24.7774 29.0546 21.4128 29.0546Z" fill="#1A1A1A"/>
<path d="M55.0427 24.6048C55.3129 24.7852 55.6329 24.9516 56.0056 25.1054C56.3781 25.2593 56.8661 25.337 57.4691 25.337C58.3169 25.337 58.9455 25.1479 59.3565 24.7684C59.7675 24.39 59.9726 23.9434 59.9726 23.4299C59.9726 23.0318 59.8661 22.7046 59.654 22.4474C59.4424 22.1901 59.1632 21.9694 58.8165 21.7831C58.4696 21.5968 58.0783 21.4303 57.6415 21.2825C57.205 21.1355 56.7556 20.971 56.2934 20.7916C55.8311 20.6123 55.3816 20.4033 54.9451 20.1657C54.5085 19.9283 54.1173 19.6295 53.7703 19.2699C53.4234 18.9102 53.1444 18.4676 52.9326 17.9403C52.7206 17.4139 52.6141 16.7782 52.6141 16.0332C52.6141 15.1087 52.7848 14.2099 53.1247 13.3367C53.4649 12.4634 53.9725 11.6898 54.6464 11.0156C55.3206 10.3415 56.1583 9.79943 57.1597 9.38844C58.1611 8.97745 59.3298 8.77246 60.6654 8.77246C62.0007 8.77246 63.1916 9.00307 64.2393 9.46631C65.2857 9.92855 66.1491 10.4942 66.8302 11.1615L65.6071 12.7177C64.8914 13.6284 63.6289 13.9014 62.6021 13.3672C62.3134 13.2194 61.9861 13.0883 61.6195 12.972C61.254 12.8567 60.833 12.7985 60.3579 12.7985C59.4719 12.7985 58.839 12.969 58.4607 13.3091C58.0812 13.6501 57.892 14.0896 57.892 14.6288C57.892 14.9757 57.9976 15.2713 58.2094 15.5148C58.4213 15.7592 58.7002 15.9771 59.0469 16.1702C59.3941 16.3623 59.7891 16.5398 60.2317 16.6994C60.6742 16.8601 61.1275 17.0405 61.59 17.2386C62.0523 17.4376 62.5046 17.6653 62.9481 17.9225C63.3906 18.1798 63.7856 18.4943 64.1328 18.8668C64.4795 19.2393 64.7584 19.6829 64.9704 20.1962C65.1825 20.7097 65.2878 21.3198 65.2878 22.0266C65.2878 23.0278 65.0887 23.975 64.6904 24.868C64.2925 25.7609 63.7206 26.5375 62.9766 27.1988C62.2316 27.8601 61.3296 28.3865 60.2702 28.7787C59.2107 29.1702 58.0202 29.3663 56.6974 29.3663C56.0982 29.3663 55.4999 29.309 54.9125 29.1906C54.2651 29.0606 53.656 28.8822 53.0853 28.6536C52.5392 28.4348 52.0417 28.1756 51.5923 27.873C51.1428 27.5714 50.7771 27.2471 50.4942 26.9002L51.6148 25.2542C52.3837 24.1268 53.9181 23.837 55.0427 24.6048Z" fill="#1A1A1A"/>
<path d="M67.0237 29.0546L69.8091 6.14677C70.2201 2.76229 73.0922 0.218506 76.5011 0.218506L75.0948 11.6995C76.0066 10.6982 76.9695 9.95996 77.9845 9.48392C78.9985 9.00888 80.0453 8.77136 81.1245 8.77136C81.8687 8.77136 82.5594 8.90637 83.1952 9.17544C83.8309 9.44547 84.373 9.83972 84.8225 10.3601C85.2719 10.8805 85.6245 11.5191 85.882 12.2771C86.1391 13.035 86.2672 13.9082 86.2672 14.8967C86.2672 15.1284 86.2574 15.3658 86.2386 15.6093C86.2201 15.8537 86.1973 16.1041 86.1718 16.3604L84.6698 29.0546H78.6979L80.2001 16.3604C80.2257 16.1554 80.2454 15.965 80.2581 15.7926C80.2709 15.6192 80.2778 15.4555 80.2778 15.3018C80.2778 14.6079 80.1558 14.127 79.9123 13.8569C79.6678 13.5869 79.3022 13.4529 78.8142 13.4529C78.4162 13.4529 77.9983 13.5721 77.5627 13.8096C77.1259 14.0472 76.7051 14.3842 76.301 14.8208C75.897 15.2575 75.5174 15.7838 75.1649 16.4006C74.8109 17.0166 74.5192 17.7046 74.2885 18.4616L73.7197 23.1283C73.305 26.5108 70.4319 29.0546 67.0237 29.0546Z" fill="#1A1A1A"/>
<path d="M104.815 29.054H101.618C101.245 29.054 100.934 29.0057 100.684 28.9091C100.433 28.8125 100.234 28.6815 100.086 28.5138C99.9387 28.3473 99.836 28.1483 99.778 27.9166C99.7198 27.685 99.6912 27.4347 99.6912 27.1655V25.7404C98.8694 26.8709 97.9577 27.7569 96.9563 28.3986C95.9549 29.0412 94.85 29.3614 93.6427 29.3614C92.9233 29.3614 92.2303 29.2166 91.5622 28.9278C90.8941 28.639 90.3037 28.2025 89.7902 27.618C89.2765 27.0336 88.8655 26.2884 88.5571 25.3837C88.2486 24.4779 88.095 23.4096 88.095 22.1767C88.095 20.3662 88.425 18.6482 89.0874 17.024C89.7486 15.3998 90.6734 13.9776 91.8606 12.7574C93.0483 11.5373 94.4578 10.5684 96.0888 9.84898C97.7191 9.12951 99.5109 8.76978 101.463 8.76978C102.413 8.76978 103.376 8.83383 104.353 8.96195C105.329 9.09008 106.292 9.32172 107.243 9.65581L104.815 29.054ZM96.0319 24.6424C96.4684 24.6424 96.8921 24.4789 97.3032 24.1517C97.7142 23.8244 98.1025 23.378 98.4682 22.8133C98.8337 22.2485 99.1707 21.5872 99.4794 20.8293C99.4823 20.8214 99.4851 20.8145 99.4881 20.8066C99.9741 19.6083 100.277 18.3437 100.437 17.0604L100.963 12.8747H100.616C99.6399 12.8747 98.7499 13.0935 97.9479 13.5301C97.1454 13.9667 96.4545 14.561 95.8771 15.3121C95.2995 16.0631 94.8529 16.9363 94.5385 17.9318C94.2241 18.9271 94.0665 19.9897 94.0665 21.12C94.0665 21.7627 94.1177 22.3078 94.2204 22.7571C94.3227 23.2065 94.4607 23.5692 94.6342 23.8452C94.8078 24.1211 95.0126 24.3231 95.2503 24.4523C95.4898 24.5785 95.749 24.6424 96.0319 24.6424Z" fill="#1A1A1A"/>
<path d="M47.8787 29.054H44.6817C44.3091 29.054 43.9976 29.0057 43.7471 28.9091C43.497 28.8125 43.2979 28.6815 43.1501 28.5138C43.002 28.3473 42.8996 28.1483 42.8416 27.9166C42.7834 27.685 42.7548 27.4347 42.7548 27.1655V25.7404C41.9327 26.8709 41.0213 27.7569 40.0199 28.3986C39.0185 29.0412 37.9136 29.3614 36.7063 29.3614C35.9869 29.3614 35.2939 29.2166 34.6258 28.9278C33.9577 28.639 33.3673 28.2025 32.8535 27.618C32.3401 27.0336 31.9291 26.2884 31.6207 25.3837C31.3122 24.4789 31.1586 23.4096 31.1586 22.1767C31.1586 20.3662 31.4886 18.6482 32.151 17.024C32.8122 15.3998 33.7367 13.9776 34.9242 12.7574C36.1119 11.5373 37.5214 10.5684 39.1524 9.84898C40.7827 9.12951 42.5745 8.76978 44.5269 8.76978C45.4768 8.76978 46.4399 8.83383 47.4164 8.96195C48.3924 9.09008 49.3552 9.32172 50.3064 9.65581L47.8787 29.054ZM39.0943 24.6424C39.5311 24.6424 39.9549 24.4789 40.3659 24.1517C40.7769 23.8244 41.1651 23.378 41.5306 22.8133C41.8962 22.2485 42.2336 21.5872 42.5418 20.8293C42.5447 20.8214 42.5479 20.8145 42.5508 20.8066C43.0368 19.6083 43.3392 18.3437 43.4998 17.0604L44.0251 12.8747H43.6782C42.7026 12.8747 41.8126 13.0935 41.0103 13.5301C40.2078 13.9667 39.5172 14.561 38.9395 15.3121C38.3619 16.0631 37.9157 16.9363 37.6012 17.9318C37.2868 18.9271 37.1292 19.9897 37.1292 21.12C37.1292 21.7627 37.1804 22.3078 37.2828 22.7571C37.3854 23.2065 37.5234 23.5692 37.6967 23.8452C37.8702 24.1211 38.0753 24.3231 38.3127 24.4523C38.5522 24.5785 38.8114 24.6424 39.0943 24.6424Z" fill="#1A1A1A"/>
</g>
</svg>
