<svg width="89" height="45" viewBox="0 0 89 45" fill="none" xmlns="http://www.w3.org/2000/svg">
<g clip-path="url(#clip0_99_371)">
<path d="M44.6505 0.402344C20.2302 0.402344 0.433441 10.3015 0.433441 22.5109C0.433441 34.7202 20.2302 44.6194 44.6505 44.6194C69.0707 44.6194 88.869 34.7202 88.869 22.5109C88.869 10.3015 69.0692 0.402344 44.6505 0.402344ZM44.6505 41.1299C22.1582 41.1299 3.9245 32.7937 3.9245 22.5109C3.9245 12.228 22.1582 3.89341 44.6505 3.89341C67.1427 3.89341 85.378 12.228 85.378 22.5109C85.378 32.7937 67.1443 41.1299 44.6505 41.1299ZM39.0754 18.6329V15.1419H51.5546V18.6329H47.0621V29.8845H43.5663V18.6329H39.0754ZM66.6077 15.1419V29.8845H63.1166L56.785 21.1101V29.8845H53.2954V15.1419H56.785L63.1166 23.9163V15.1419H66.6077ZM22.5919 29.8845V15.1419H26.0829L29.9608 21.1069L33.8388 15.1419H37.3298V29.8845H33.8388V21.5437L31.1869 25.6135H28.7301L26.0783 21.5437V29.8845H22.5919Z" fill="#1D1D1B"/>
</g>
<defs>
<clipPath id="clip0_99_371">
<rect width="88.4356" height="44.217" fill="white" transform="translate(0.433441 0.402344)"/>
</clipPath>
</defs>
</svg>
