<svg width="170" height="37" viewBox="0 0 170 37" fill="none" xmlns="http://www.w3.org/2000/svg">
<g clip-path="url(#clip0_99_375)">
<path d="M19.5334 9.09203C21.6106 9.09203 23.2944 7.40826 23.2944 5.33157C23.2944 3.25434 21.6106 1.57056 19.5334 1.57056C17.4562 1.57056 15.7729 3.25434 15.7729 5.33157C15.7729 7.40878 17.4566 9.09203 19.5334 9.09203Z" fill="#185DE7"/>
<path d="M4.23184 18.0835C6.30905 18.0835 7.99283 16.3998 7.99283 14.3225C7.99283 12.2453 6.30905 10.562 4.23184 10.562C2.15461 10.562 0.470825 12.2458 0.470825 14.3225C0.470825 16.3998 2.15461 18.0835 4.23184 18.0835Z" fill="#FF8800"/>
<path d="M34.8355 18.0835C36.9127 18.0835 38.5965 16.3998 38.5965 14.3225C38.5965 12.2453 36.9127 10.562 34.8355 10.562C32.7583 10.562 31.0751 12.2458 31.0751 14.3225C31.0751 16.3998 32.7589 18.0835 34.8355 18.0835Z" fill="#17BAA7"/>
<path d="M7.46149 30.1247C5.99294 28.6561 5.99294 26.2749 7.46149 24.8062C8.93057 23.3377 11.3113 23.3377 12.7799 24.8062C14.2484 26.2749 14.2484 28.6561 12.7799 30.1247C11.3108 31.5932 8.93003 31.5938 7.46149 30.1247Z" fill="#964DDE"/>
<path d="M26.2421 30.2084C24.7736 28.7399 24.7736 26.3586 26.2421 24.89C27.7112 23.4214 30.092 23.4214 31.5606 24.89C33.0291 26.3586 33.0291 28.7399 31.5606 30.2084C30.0914 31.6769 27.7108 31.6775 26.2421 30.2084Z" fill="#3495EF"/>
<path fill-rule="evenodd" clip-rule="evenodd" d="M9.84983 12.6789C9.97252 13.0981 10.4411 13.3468 10.8313 13.151L15.4623 10.8317C15.908 10.6085 15.9403 9.96914 15.5738 9.63175C15.5146 9.57728 15.4565 9.52175 15.3993 9.46465C14.3406 8.40594 13.6859 6.9432 13.6859 5.3287C13.6859 4.86069 13.1899 4.49315 12.7716 4.70257L6.96298 7.61164L6.9064 7.6402C6.35113 7.91783 6.46006 8.87605 7.00581 9.17062C7.50979 9.44243 7.9688 9.78563 8.37018 10.187C9.05448 10.8713 9.57007 11.7249 9.84983 12.6789Z" fill="#185DE7"/>
<path fill-rule="evenodd" clip-rule="evenodd" d="M13.4579 17.601C13.4579 17.1197 13.1861 16.6798 12.7556 16.4645L10.8244 15.4978C10.4341 15.3026 9.96557 15.5512 9.84288 15.9705C9.56366 16.9246 9.04806 17.7776 8.36322 18.4619C7.72599 19.0997 6.94122 19.5909 6.06548 19.8807C5.62603 20.0261 5.39228 20.5513 5.64507 20.939L6.41398 22.1171C6.61018 22.418 7.01578 22.4931 7.33097 22.3212C8.19824 21.8489 9.15858 21.6121 10.1179 21.6121C10.8921 21.6121 11.6663 21.766 12.3919 22.0732C12.8651 22.2737 13.4573 21.9574 13.4573 21.4429L13.4579 17.601Z" fill="#FF8800"/>
<path fill-rule="evenodd" clip-rule="evenodd" d="M26.3064 16.4489C25.8749 16.6642 25.6021 17.1047 25.6021 17.5869L25.6025 21.5119C25.6025 22.0233 26.1889 22.3396 26.6612 22.1434C27.3762 21.8467 28.1371 21.6981 28.8971 21.6981C29.8675 21.6981 30.839 21.9397 31.7142 22.4231C32.0352 22.6003 32.4509 22.5204 32.6449 22.2089L33.4413 20.9292C33.6824 20.5415 33.4471 20.0291 33.0134 19.8874C32.1308 19.5982 31.3408 19.1047 30.6983 18.4632C30.0113 17.7768 29.4947 16.9201 29.2165 15.9625C29.0949 15.5431 28.6269 15.2935 28.236 15.488L26.3064 16.4489Z" fill="#3495EF"/>
<path fill-rule="evenodd" clip-rule="evenodd" d="M23.494 9.63984C23.1264 9.97776 23.1587 10.6187 23.605 10.8419L28.2402 13.1613C28.6309 13.357 29.0995 13.1074 29.2216 12.688C29.5003 11.7319 30.017 10.8768 30.7023 10.1909C31.1022 9.79108 31.5595 9.44841 32.0615 9.17711C32.6071 8.88256 32.7145 7.92434 32.1598 7.64723L32.0953 7.61496L26.292 4.71118C25.8778 4.50389 25.386 4.86825 25.386 5.33098C25.386 6.946 24.7314 8.40874 23.6727 9.46745C23.6139 9.52615 23.5553 9.58379 23.494 9.63984Z" fill="#17BAA7"/>
<path fill-rule="evenodd" clip-rule="evenodd" d="M23.0919 26.8241L20.1093 28.319C19.7513 28.4982 19.3298 28.4982 18.9718 28.3195L16.526 27.0969C16.2706 26.9689 15.9692 27.1767 15.9692 27.4623C15.9692 28.9594 15.398 30.456 14.2557 31.5988C14.114 31.7399 13.9675 31.8727 13.8158 31.9964C13.4112 32.3275 13.4212 33.0176 13.8887 33.2509L17.0099 34.8114C17.802 35.2149 18.6703 35.4148 19.5318 35.4148C20.3928 35.4148 21.2606 35.2149 22.0517 34.8231L25.0893 33.3C25.5531 33.0673 25.5663 32.3862 25.167 32.0546C25.0279 31.9394 24.8937 31.8167 24.7635 31.6866C24.7619 31.685 24.7609 31.6823 24.7609 31.6796C24.7609 31.677 24.7599 31.6749 24.7577 31.6729C23.6175 30.5305 23.047 29.0377 23.047 27.5475C23.047 27.3053 23.0617 27.0641 23.0919 26.8241Z" fill="#964DDE"/>
</g>
<g clip-path="url(#clip1_99_375)">
<path fill-rule="evenodd" clip-rule="evenodd" d="M68.7742 22.7843C68.7742 23.7373 68.5317 24.613 68.0468 25.4129C67.562 26.213 66.8472 26.8504 65.9037 27.3268C64.9595 27.8034 63.8152 28.0417 62.4714 28.0417C60.4468 28.0417 58.7801 27.5484 57.4702 26.5614C56.1603 25.575 55.4455 24.1966 55.327 22.4275H59.9708C60.0387 23.1084 60.2818 23.6438 60.6981 24.0352C61.1151 24.4266 61.6464 24.622 62.2933 24.622C62.855 24.622 63.297 24.4689 63.6205 24.1627C63.9439 23.8565 64.1047 23.4478 64.1047 22.938C64.1047 22.4787 63.9558 22.0963 63.6586 21.7895C63.3608 21.4833 62.9908 21.2326 62.5489 21.0373C62.1063 20.8412 61.4939 20.6077 60.7118 20.3349C59.5717 19.9442 58.6401 19.5653 57.9176 19.1996C57.1944 18.8339 56.5737 18.2894 56.0549 17.5663C55.5361 16.8431 55.2764 15.9032 55.2764 14.7464C55.2764 13.6748 55.5486 12.7473 56.093 11.9646C56.6375 11.1825 57.3904 10.5827 58.3512 10.1657C59.3126 9.74934 60.414 9.54026 61.656 9.54026C63.6633 9.54026 65.258 10.0168 66.4404 10.9693C67.6228 11.9223 68.2905 13.2316 68.4435 14.8989H63.7229C63.6377 14.3032 63.4209 13.8314 63.0719 13.483C62.7234 13.1339 62.251 12.96 61.656 12.96C61.1455 12.96 60.7327 13.0958 60.4182 13.368C60.1036 13.6402 59.9464 14.0399 59.9464 14.5671C59.9464 14.9924 60.0864 15.354 60.3669 15.6512C60.6481 15.949 61.0007 16.1915 61.426 16.3785C61.8513 16.5655 62.4637 16.8038 63.2637 17.0933C64.4198 17.4847 65.3646 17.8718 66.096 18.2543C66.8275 18.6373 67.4572 19.1942 67.9843 19.9257C68.5115 20.6578 68.7754 21.6102 68.7754 22.7837L68.7742 22.7843ZM159.668 13.4449C160.757 13.4449 161.692 13.6915 162.475 14.1853C163.257 14.6791 163.827 15.351 164.184 16.201V8.97974H168.548V27.8623H164.184V25.2849C163.827 26.1355 163.257 26.8075 162.475 27.3012C161.692 27.7944 160.756 28.0417 159.668 28.0417C158.494 28.0417 157.443 27.748 156.516 27.1613C155.59 26.5746 154.858 25.7281 154.322 24.622C153.787 23.5163 153.518 22.2232 153.518 20.7435C153.518 19.2466 153.787 17.9493 154.322 16.8527C154.858 15.7554 155.59 14.9132 156.516 14.3264C157.444 13.7397 158.494 13.4449 159.668 13.4449ZM161.072 17.2726C160.136 17.2726 159.383 17.5788 158.813 18.1911C158.244 18.8035 157.958 19.6541 157.958 20.7429C157.958 21.8318 158.243 22.6825 158.813 23.2948C159.383 23.9071 160.136 24.2133 161.072 24.2133C161.991 24.2133 162.743 23.8988 163.33 23.2692C163.916 22.6402 164.21 21.7978 164.21 20.7429C164.21 19.6714 163.916 18.8249 163.33 18.2042C162.743 17.5835 161.99 17.2726 161.072 17.2726ZM147.522 16.3029C148.066 15.435 148.768 14.7464 149.627 14.2359C150.486 13.7254 151.418 13.4705 152.421 13.4705V18.1399H151.171C150.014 18.1399 149.117 18.3865 148.478 18.8803C147.841 19.3735 147.522 20.2074 147.522 21.3809V27.8623H143.159V13.6236H147.522V16.3029ZM140.887 20.3599C140.887 20.7173 140.845 21.1087 140.759 21.5334H130.884C130.935 22.605 131.208 23.3753 131.701 23.8428C132.194 24.3104 132.824 24.5445 133.589 24.5445C134.236 24.5445 134.772 24.3831 135.196 24.059C135.622 23.7361 135.902 23.3192 136.039 22.8094H140.657C140.47 23.813 140.061 24.7101 139.432 25.5011C138.803 26.2922 138.003 26.9129 137.033 27.3643C136.064 27.8153 134.984 28.0405 133.793 28.0405C132.398 28.0405 131.16 27.7468 130.08 27.16C129 26.5734 128.154 25.7269 127.541 24.6208C126.929 23.5151 126.623 22.222 126.623 20.7424C126.623 19.2455 126.925 17.9481 127.528 16.8515C128.132 15.7543 128.979 14.912 130.068 14.3252C131.156 13.7385 132.398 13.4449 133.793 13.4449C135.205 13.4449 136.447 13.7343 137.518 14.3127C138.59 14.8911 139.419 15.7036 140.006 16.7496C140.593 17.7956 140.887 18.9988 140.887 20.3599ZM136.473 19.6964C136.49 18.7612 136.239 18.0589 135.721 17.5913C135.202 17.1237 134.56 16.8896 133.794 16.8896C132.994 16.8896 132.331 17.1279 131.804 17.6044C131.276 18.0803 130.979 18.7779 130.911 19.697L136.473 19.6964ZM119.147 13.4705C120.78 13.4705 122.077 14.0149 123.038 15.1032C123.999 16.1921 124.479 17.689 124.479 19.5945V27.8623H120.116V20.105C120.116 19.1519 119.864 18.4079 119.362 17.8724C118.86 17.3363 118.193 17.0683 117.36 17.0683C116.475 17.0683 115.773 17.3494 115.255 17.9106C114.736 18.4723 114.476 19.2717 114.476 20.3093V27.8623H110.113V13.6236H114.476V16.226C114.884 15.3754 115.492 14.7035 116.301 14.2097C117.109 13.7165 118.058 13.4705 119.147 13.4705ZM98.2222 13.4449C99.311 13.4449 100.246 13.6915 101.029 14.1853C101.811 14.6791 102.389 15.351 102.764 16.201V13.6242H107.102V27.8629H102.764V25.2856C102.389 26.1361 101.811 26.8081 101.029 27.3018C100.246 27.795 99.3104 28.0422 98.2222 28.0422C97.0486 28.0422 95.9973 27.7486 95.0704 27.1619C94.1436 26.5751 93.4121 25.7287 92.876 24.6226C92.3405 23.5169 92.0725 22.2238 92.0725 20.7441C92.0725 19.2472 92.3405 17.9499 92.876 16.8533C93.4121 15.756 94.1436 14.9138 95.0704 14.327C95.9973 13.7403 97.048 13.4466 98.2222 13.4466V13.4449ZM99.6255 17.2726C98.6903 17.2726 97.9368 17.5788 97.3673 18.1911C96.7972 18.8035 96.5126 19.6541 96.5126 20.7429C96.5126 21.8318 96.7972 22.6825 97.3673 23.2948C97.9368 23.9071 98.6903 24.2133 99.6255 24.2133C100.544 24.2133 101.297 23.8988 101.884 23.2692C102.47 22.6402 102.764 21.7978 102.764 20.7429C102.764 19.6714 102.47 18.8249 101.884 18.2042C101.296 17.5835 100.544 17.2726 99.6255 17.2726ZM86.0753 16.3029C86.6198 15.435 87.3214 14.7464 88.1804 14.2359C89.0399 13.7254 89.971 13.4705 90.9746 13.4705V18.1399H89.7243C88.567 18.1399 87.6699 18.3865 87.032 18.8803C86.3946 19.3735 86.0753 20.2074 86.0753 21.3809V27.8623H81.712V13.6236H86.0753V16.3029ZM79.2627 24.1108V27.8623H77.2976C75.6302 27.8623 74.3329 27.4495 73.4061 26.6246C72.4792 25.7995 72.0157 24.4343 72.0157 22.5288V17.2982H70.1019V13.6236H72.0157V10.1276H76.379V13.6236H79.2371V17.2982H76.379V22.6056C76.379 23.1674 76.494 23.5586 76.7233 23.779C76.9533 24 77.3399 24.1108 77.8849 24.1108H79.2627Z" fill="#3219AF"/>
</g>
<defs>
<clipPath id="clip0_99_375">
<rect width="38.125" height="35.7422" fill="white" transform="translate(0.470795 0.639893)"/>
</clipPath>
<clipPath id="clip1_99_375">
<rect width="114.375" height="19.0625" fill="white" transform="translate(55.2755 8.97974)"/>
</clipPath>
</defs>
</svg>
