<svg width="142" height="142" viewBox="0 0 142 142" fill="none" xmlns="http://www.w3.org/2000/svg">
<g clip-path="url(#clip0_484_96)">
<path d="M71 139.771C109.024 139.771 139.848 108.946 139.848 70.9229C139.848 32.8993 109.024 2.0752 71 2.0752C32.9765 2.0752 2.15234 32.8993 2.15234 70.9229C2.15234 108.946 32.9765 139.771 71 139.771Z" fill="#27A737"/>
<path fill-rule="evenodd" clip-rule="evenodd" d="M102.937 39.4586C98.859 35.4047 94.0115 32.2075 88.6796 30.055C83.3477 27.9026 77.6391 26.8385 71.8898 26.9253C47.874 26.9253 28.3059 46.0553 28.3059 69.8945C28.3059 77.8407 30.6778 85.4927 34.5319 91.9676L26.5269 114.924L47.1151 135.512C54.7611 138.337 62.8489 139.779 71.0002 139.77C107.258 139.77 136.968 111.743 139.65 76.1721L102.937 39.4586ZM52.0258 99.914L37.7934 104.328L42.2409 90.7895C37.6223 84.6907 35.1234 77.2496 35.1248 69.5993C35.1248 49.5861 51.7287 33.3992 71.8895 33.3992C92.0503 33.3992 108.654 49.5861 108.951 69.5993C108.954 76.9201 106.697 84.0634 102.489 90.0537L93.2551 80.8201C93.1329 80.6995 92.9913 80.6002 92.8362 80.5265L86.2569 77.5281L59.7114 50.9644C59.4617 50.7259 59.1351 50.5843 58.7902 50.5651L55.9322 50.3999C55.0338 50.3507 54.1505 50.6462 53.4625 51.2261C52.0751 52.4125 49.8549 54.7577 49.1618 57.7649C48.1351 62.2621 49.7167 67.7798 53.7955 73.297C55.5654 75.7223 57.5208 78.0065 59.6442 80.1291L83.5366 104.025C78.305 105.698 72.7688 106.197 67.3223 105.487C61.8758 104.776 56.653 102.874 52.0258 99.914Z" fill="url(#paint0_linear_484_96)"/>
<path d="M71.8898 26.9252C47.874 26.9252 28.3059 46.0552 28.3059 69.8944C28.3059 77.8405 30.6778 85.4925 34.5319 91.9675L26.5269 114.924L50.8389 107.272C57.0655 110.509 64.1807 112.569 71.8898 112.569C95.9055 112.569 115.474 93.4392 115.474 69.6C115.474 45.7608 95.9055 26.6308 71.8898 26.9252ZM72.1863 105.8C65.0362 105.842 58.0292 103.797 52.025 99.9139L37.7934 104.328L42.2409 90.7894C37.6223 84.6906 35.1234 77.2495 35.1248 69.5992C35.1248 49.586 51.7287 33.3991 71.8895 33.3991C92.0503 33.3991 108.654 49.586 108.951 69.5992C108.951 89.6129 92.3474 105.8 72.1863 105.8Z" fill="white"/>
<path fill-rule="evenodd" clip-rule="evenodd" d="M55.9315 50.3994L58.7895 50.5646C59.0661 50.5819 59.3323 50.6764 59.5579 50.8373C59.7835 50.9982 59.9595 51.2192 60.0659 51.475L64.2279 61.1864C64.3338 61.4418 64.3666 61.7215 64.3225 61.9945C64.2785 62.2674 64.1593 62.5226 63.9784 62.7316L60.3432 66.8975C60.201 67.0626 60.1119 67.2667 60.0873 67.4832C60.0627 67.6997 60.1039 67.9186 60.2055 68.1114C65.0061 77.2712 73.719 80.9132 76.3272 81.8236C76.5424 81.9002 76.7764 81.9068 76.9956 81.8425C77.2148 81.7782 77.4082 81.6463 77.548 81.4656L81.3484 76.5549C81.5561 76.2899 81.8468 76.1024 82.1739 76.0224C82.501 75.9425 82.8454 75.9749 83.1519 76.1142L92.836 80.5285C93.1402 80.6712 93.3877 80.9119 93.5387 81.2121C93.6897 81.5123 93.7354 81.8545 93.6685 82.1839L93.2238 84.3066C92.9716 85.4985 92.4864 86.6289 91.7959 87.6327C91.1054 88.6365 90.2233 89.4939 89.2003 90.1556C86.5643 91.811 83.1789 92.6388 78.8503 91.4249C65.4481 87.6448 57.873 78.8164 53.7939 73.2984C49.7148 67.7804 48.1335 62.2626 49.1602 57.7663C49.8539 54.7591 52.0735 52.4138 53.4609 51.2275C54.1489 50.6475 55.0322 50.352 55.9306 50.4013L55.9315 50.3994Z" fill="white"/>
<path d="M71 139.771C109.024 139.771 139.848 108.946 139.848 70.9229C139.848 32.8993 109.024 2.0752 71 2.0752C32.9765 2.0752 2.15234 32.8993 2.15234 70.9229C2.15234 108.946 32.9765 139.771 71 139.771Z" fill="#27A737"/>
<path fill-rule="evenodd" clip-rule="evenodd" d="M102.937 39.4586C98.859 35.4047 94.0115 32.2075 88.6796 30.055C83.3477 27.9026 77.6391 26.8385 71.8898 26.9253C47.874 26.9253 28.3059 46.0553 28.3059 69.8945C28.3059 77.8407 30.6778 85.4927 34.5319 91.9676L26.5269 114.924L47.1151 135.512C54.7611 138.337 62.8489 139.779 71.0002 139.77C107.258 139.77 136.968 111.743 139.65 76.1721L102.937 39.4586ZM52.0258 99.914L37.7934 104.328L42.2409 90.7895C37.6223 84.6907 35.1234 77.2496 35.1248 69.5993C35.1248 49.5861 51.7287 33.3992 71.8895 33.3992C92.0503 33.3992 108.654 49.5861 108.951 69.5993C108.954 76.9201 106.697 84.0634 102.489 90.0537L93.2551 80.8201C93.1329 80.6995 92.9913 80.6002 92.8362 80.5265L86.2569 77.5281L59.7114 50.9644C59.4617 50.7259 59.1351 50.5843 58.7902 50.5651L55.9322 50.3999C55.0338 50.3507 54.1505 50.6462 53.4625 51.2261C52.0751 52.4125 49.8549 54.7577 49.1618 57.7649C48.1351 62.2621 49.7167 67.7798 53.7955 73.297C55.5654 75.7223 57.5208 78.0065 59.6442 80.1291L83.5366 104.025C78.305 105.698 72.7688 106.197 67.3223 105.487C61.8758 104.776 56.653 102.874 52.0258 99.914Z" fill="url(#paint1_linear_484_96)"/>
<path d="M71.8898 26.9252C47.874 26.9252 28.3059 46.0552 28.3059 69.8944C28.3059 77.8405 30.6778 85.4925 34.5319 91.9675L26.5269 114.924L50.8389 107.272C57.0655 110.509 64.1807 112.569 71.8898 112.569C95.9055 112.569 115.474 93.4392 115.474 69.6C115.474 45.7608 95.9055 26.6308 71.8898 26.9252ZM72.1863 105.8C65.0362 105.842 58.0292 103.797 52.025 99.9139L37.7934 104.328L42.2409 90.7894C37.6223 84.6906 35.1234 77.2495 35.1248 69.5992C35.1248 49.586 51.7287 33.3991 71.8895 33.3991C92.0503 33.3991 108.654 49.586 108.951 69.5992C108.951 89.6129 92.3474 105.8 72.1863 105.8Z" fill="white"/>
<path fill-rule="evenodd" clip-rule="evenodd" d="M55.9315 50.3994L58.7895 50.5646C59.0661 50.5819 59.3323 50.6764 59.5579 50.8373C59.7835 50.9982 59.9595 51.2192 60.0659 51.475L64.2279 61.1864C64.3338 61.4418 64.3666 61.7215 64.3225 61.9945C64.2785 62.2674 64.1593 62.5226 63.9784 62.7316L60.3432 66.8975C60.201 67.0626 60.1119 67.2667 60.0873 67.4832C60.0627 67.6997 60.1039 67.9186 60.2055 68.1114C65.0061 77.2712 73.719 80.9132 76.3272 81.8236C76.5424 81.9002 76.7764 81.9068 76.9956 81.8425C77.2148 81.7782 77.4082 81.6463 77.548 81.4656L81.3484 76.5549C81.5561 76.2899 81.8468 76.1024 82.1739 76.0224C82.501 75.9425 82.8454 75.9749 83.1519 76.1142L92.836 80.5285C93.1402 80.6712 93.3877 80.9119 93.5387 81.2121C93.6897 81.5123 93.7354 81.8545 93.6685 82.1839L93.2238 84.3066C92.9716 85.4985 92.4864 86.6289 91.7959 87.6327C91.1054 88.6365 90.2233 89.4939 89.2003 90.1556C86.5643 91.811 83.1789 92.6388 78.8503 91.4249C65.4481 87.6448 57.873 78.8164 53.7939 73.2984C49.7148 67.7804 48.1335 62.2626 49.1602 57.7663C49.8539 54.7591 52.0735 52.4138 53.4609 51.2275C54.1489 50.6475 55.0322 50.352 55.9306 50.4013L55.9315 50.3994Z" fill="white"/>
</g>
<defs>
<linearGradient id="paint0_linear_484_96" x1="34.0503" y1="46.5095" x2="113.414" y2="125.874" gradientUnits="userSpaceOnUse">
<stop stop-color="#1D1D1B"/>
<stop offset="0.369" stop-color="#1D1D1B" stop-opacity="0.856"/>
<stop offset="0.75" stop-color="#1D1D1B" stop-opacity="0.429"/>
<stop offset="1" stop-color="#1D1D1B" stop-opacity="0"/>
</linearGradient>
<linearGradient id="paint1_linear_484_96" x1="34.0503" y1="46.5095" x2="113.414" y2="125.874" gradientUnits="userSpaceOnUse">
<stop stop-color="#1D1D1B"/>
<stop offset="0.369" stop-color="#1D1D1B" stop-opacity="0.856"/>
<stop offset="0.75" stop-color="#1D1D1B" stop-opacity="0.429"/>
<stop offset="1" stop-color="#1D1D1B" stop-opacity="0"/>
</linearGradient>
<clipPath id="clip0_484_96">
<rect width="141" height="141" fill="white" transform="translate(0.5 0.422852)"/>
</clipPath>
</defs>
</svg>
